<svg width="29" height="29" viewBox="0 0 29 29" fill="none" xmlns="http://www.w3.org/2000/svg">
<rect width="28.5343" height="28.5343" rx="6.34095" fill="#18181A"/>
<path d="M15.6089 17.0673L21.3805 21.7155L23.2218 20.7893L16.6284 16.3955L15.6089 17.0677V17.0673ZM8.79186 18.3926L8.79283 13.4534L7.74642 12.8552L7.0097 21.6891L19.0891 13.0456V11.5669L8.79186 18.3926ZM5.25013 20.0271L6.19219 20.9538L6.74521 11.0215L10.0427 13.1932L11.0636 12.3988L5.06836 7.90156L5.25013 20.0271ZM21.9532 16.924L18.6558 14.7523L17.7109 15.4967L23.6301 19.9449L23.4483 7.91791L22.5063 6.99076L21.9532 16.9235V16.924ZM9.60937 14.9004V16.3796L19.9071 9.55388L19.9061 14.4003L20.952 15.0903L21.6892 6.25644L9.60937 14.9004ZM5.55357 7.10713L12.1465 11.501L13.09 10.8787L7.31939 6.23096L5.55357 7.10713Z" fill="white"/>
</svg>
